{
	"asset":{
		"generator":"Khronos glTF Blender I/O v3.6.28",
		"version":"2.0"
	},
	"scene":0,
	"scenes":[
		{
			"name":"Scene",
			"nodes":[
				0
			]
		}
	],
	"nodes":[
		{
			"mesh":0,
			"name":"Plane-col"
		}
	],
	"materials":[
		{
			"doubleSided":true,
			"name":"Material.001",
			"pbrMetallicRoughness":{
				"baseColorFactor":[
					0.800000011920929,
					0.800000011920929,
					0.800000011920929,
					1
				],
				"metallicFactor":0,
				"roughnessFactor":0.5
			}
		},
		{
			"doubleSided":true,
			"name":"Material.002",
			"pbrMetallicRoughness":{
				"baseColorFactor":[
					0.800000011920929,
					0.800000011920929,
					0.800000011920929,
					1
				],
				"metallicFactor":0,
				"roughnessFactor":0.5
			}
		}
	],
	"meshes":[
		{
			"name":"Plane.003",
			"primitives":[
				{
					"attributes":{
						"POSITION":0,
						"NORMAL":1,
						"TEXCOORD_0":2
					},
					"indices":3,
					"material":0
				},
				{
					"attributes":{
						"POSITION":4,
						"NORMAL":5,
						"TEXCOORD_0":6
					},
					"indices":7,
					"material":1
				}
			]
		}
	],
	"accessors":[
		{
			"bufferView":0,
			"componentType":5126,
			"count":372,
			"max":[
				26.315532684326172,
				16.70156478881836,
				27.760679244995117
			],
			"min":[
				-32.00343322753906,
				-4.645276069641113,
				-35.90604019165039
			],
			"type":"VEC3"
		},
		{
			"bufferView":1,
			"componentType":5126,
			"count":372,
			"type":"VEC3"
		},
		{
			"bufferView":2,
			"componentType":5126,
			"count":372,
			"type":"VEC2"
		},
		{
			"bufferView":3,
			"componentType":5123,
			"count":642,
			"type":"SCALAR"
		},
		{
			"bufferView":4,
			"componentType":5126,
			"count":1344,
			"max":[
				17.992759704589844,
				6.352438926696777,
				19.277690887451172
			],
			"min":[
				-23.388601303100586,
				1.1772875785827637,
				-18.103670120239258
			],
			"type":"VEC3"
		},
		{
			"bufferView":5,
			"componentType":5126,
			"count":1344,
			"type":"VEC3"
		},
		{
			"bufferView":6,
			"componentType":5126,
			"count":1344,
			"type":"VEC2"
		},
		{
			"bufferView":7,
			"componentType":5123,
			"count":2604,
			"type":"SCALAR"
		}
	],
	"bufferViews":[
		{
			"buffer":0,
			"byteLength":4464,
			"byteOffset":0,
			"target":34962
		},
		{
			"buffer":0,
			"byteLength":4464,
			"byteOffset":4464,
			"target":34962
		},
		{
			"buffer":0,
			"byteLength":2976,
			"byteOffset":8928,
			"target":34962
		},
		{
			"buffer":0,
			"byteLength":1284,
			"byteOffset":11904,
			"target":34963
		},
		{
			"buffer":0,
			"byteLength":16128,
			"byteOffset":13188,
			"target":34962
		},
		{
			"buffer":0,
			"byteLength":16128,
			"byteOffset":29316,
			"target":34962
		},
		{
			"buffer":0,
			"byteLength":10752,
			"byteOffset":45444,
			"target":34962
		},
		{
			"buffer":0,
			"byteLength":5208,
			"byteOffset":56196,
			"target":34963
		}
	],
	"buffers":[
		{
			"byteLength":61404,
			"uri":"Environment-7d8a1852cd88ae5130d6bd3a1951f19f.bin"
		}
	]
}
