{
	"asset":{
		"generator":"Khronos glTF Blender I/O v3.6.28",
		"version":"2.0"
	},
	"extensionsUsed":[
		"KHR_materials_specular",
		"KHR_materials_ior"
	],
	"scene":0,
	"scenes":[
		{
			"name":"Scene",
			"nodes":[
				0
			]
		}
	],
	"nodes":[
		{
			"mesh":0,
			"name":"Cube"
		}
	],
	"materials":[
		{
			"doubleSided":true,
			"extensions":{
				"KHR_materials_specular":{
					"specularColorFactor":[
						0.3010273018500432,
						0.3010273018500432,
						0.3010273018500432
					]
				},
				"KHR_materials_ior":{
					"ior":1.4500000476837158
				}
			},
			"name":"PistolBlack",
			"pbrMetallicRoughness":{
				"baseColorFactor":[
					0.04696175083518028,
					0.04696175083518028,
					0.04696175083518028,
					1
				],
				"metallicFactor":0,
				"roughnessFactor":0.5
			}
		},
		{
			"doubleSided":true,
			"name":"PistolGrey",
			"pbrMetallicRoughness":{
				"baseColorFactor":[
					0.19017738103866577,
					0.19017738103866577,
					0.19017738103866577,
					1
				],
				"metallicFactor":0,
				"roughnessFactor":0.5
			}
		}
	],
	"meshes":[
		{
			"name":"Cube",
			"primitives":[
				{
					"attributes":{
						"POSITION":0,
						"NORMAL":1,
						"TEXCOORD_0":2
					},
					"indices":3,
					"material":0
				},
				{
					"attributes":{
						"POSITION":4,
						"NORMAL":5,
						"TEXCOORD_0":6
					},
					"indices":7,
					"material":1
				}
			]
		}
	],
	"accessors":[
		{
			"bufferView":0,
			"componentType":5126,
			"count":462,
			"max":[
				0.32934653759002686,
				0.14674115180969238,
				0.03860864415764809
			],
			"min":[
				-0.11372286826372147,
				-0.10232968628406525,
				-0.03780229017138481
			],
			"type":"VEC3"
		},
		{
			"bufferView":1,
			"componentType":5126,
			"count":462,
			"type":"VEC3"
		},
		{
			"bufferView":2,
			"componentType":5126,
			"count":462,
			"type":"VEC2"
		},
		{
			"bufferView":3,
			"componentType":5123,
			"count":840,
			"type":"SCALAR"
		},
		{
			"bufferView":4,
			"componentType":5126,
			"count":488,
			"max":[
				0.32934898138046265,
				0.1377204805612564,
				0.023125264793634415
			],
			"min":[
				-0.145707368850708,
				0.049634188413619995,
				-0.02555721253156662
			],
			"type":"VEC3"
		},
		{
			"bufferView":5,
			"componentType":5126,
			"count":488,
			"type":"VEC3"
		},
		{
			"bufferView":6,
			"componentType":5126,
			"count":488,
			"type":"VEC2"
		},
		{
			"bufferView":7,
			"componentType":5123,
			"count":846,
			"type":"SCALAR"
		}
	],
	"bufferViews":[
		{
			"buffer":0,
			"byteLength":5544,
			"byteOffset":0,
			"target":34962
		},
		{
			"buffer":0,
			"byteLength":5544,
			"byteOffset":5544,
			"target":34962
		},
		{
			"buffer":0,
			"byteLength":3696,
			"byteOffset":11088,
			"target":34962
		},
		{
			"buffer":0,
			"byteLength":1680,
			"byteOffset":14784,
			"target":34963
		},
		{
			"buffer":0,
			"byteLength":5856,
			"byteOffset":16464,
			"target":34962
		},
		{
			"buffer":0,
			"byteLength":5856,
			"byteOffset":22320,
			"target":34962
		},
		{
			"buffer":0,
			"byteLength":3904,
			"byteOffset":28176,
			"target":34962
		},
		{
			"buffer":0,
			"byteLength":1692,
			"byteOffset":32080,
			"target":34963
		}
	],
	"buffers":[
		{
			"byteLength":33772,
			"uri":"Pistol-c7942dfde33e4899cd40f79a37352cef.bin"
		}
	]
}
